<svg xmlns="http://www.w3.org/2000/svg" fill="none" stroke="currentColor" stroke-width="1.7" stroke-linecap="round" stroke-linejoin="round">
<symbol id="nest" viewBox="0 0 32 32"><path d="M5 16c3 12 19 12 22 0M3 11c3 12 23 12 26 0M8 5c-7 9 6 20 15 12M24 5c7 9-6 20-15 12M6 22c6 8 14 8 20 0" stroke-width="1.8"/></symbol>
<symbol id="grid" viewBox="0 0 24 24"><rect x="3" y="3" width="7" height="7" rx="2"/><rect x="14" y="3" width="7" height="7" rx="2"/><rect x="3" y="14" width="7" height="7" rx="2"/><rect x="14" y="14" width="7" height="7" rx="2"/></symbol>
<symbol id="box" viewBox="0 0 24 24"><path d="m3 7 9-4 9 4v11l-9 4-9-4zM3 7l9 4 9-4M12 11v11M7 5l9 4v4"/></symbol>
<symbol id="calendar" viewBox="0 0 24 24"><rect x="3" y="5" width="18" height="16" rx="3"/><path d="M7 3v4M17 3v4M3 10h18M7 14h2M15 14h2M7 17h2"/></symbol>
<symbol id="arrows" viewBox="0 0 24 24"><path d="M4 7h16l-4-4M20 7l-4 4M20 17H4l4 4M4 17l4-4"/></symbol>
<symbol id="arrow" viewBox="0 0 24 24"><path d="M4 12h16M14 6l6 6-6 6"/></symbol>
<symbol id="back" viewBox="0 0 24 24"><path d="M20 12H4M10 6l-6 6 6 6"/></symbol>
<symbol id="chevron" viewBox="0 0 24 24"><path d="m8 10 4 4 4-4"/></symbol>
<symbol id="users" viewBox="0 0 24 24"><circle cx="9" cy="8" r="3"/><path d="M3 21v-3a6 6 0 0 1 12 0v3M16 5a3 3 0 0 1 0 6M18 15a5 5 0 0 1 3 5"/></symbol>
<symbol id="user-plus" viewBox="0 0 24 24"><circle cx="9" cy="7" r="3"/><path d="M3 21v-3a6 6 0 0 1 12 0v3M18 7v8M14 11h8"/></symbol>
<symbol id="settings" viewBox="0 0 24 24"><circle cx="12" cy="12" r="3"/><path d="m9 3-1 3-3 1v4l-2 1 2 2v4l3 1 1 2h5l1-2 3-1v-4l2-2-2-1V7l-3-1-1-3z"/></symbol>
<symbol id="lock" viewBox="0 0 24 24"><rect x="5" y="10" width="14" height="11" rx="3"/><path d="M8 10V7a4 4 0 0 1 8 0v3M12 14v3"/></symbol>
<symbol id="check" viewBox="0 0 24 24"><path d="m5 12 4 4L19 6"/></symbol>
<symbol id="plus" viewBox="0 0 24 24"><path d="M12 4v16M4 12h16"/></symbol>
<symbol id="search" viewBox="0 0 24 24"><circle cx="10" cy="10" r="6"/><path d="m15 15 6 6"/></symbol>
<symbol id="clock" viewBox="0 0 24 24"><circle cx="12" cy="12" r="9"/><path d="M12 7v5l4 2"/></symbol>
<symbol id="pin" viewBox="0 0 24 24"><path d="M19 10c0 5-7 11-7 11S5 15 5 10a7 7 0 0 1 14 0z"/><circle cx="12" cy="10" r="2"/></symbol>
<symbol id="leaf" viewBox="0 0 24 24"><path d="M20 3C3 1 2 14 9 17c8 4 12-4 11-14ZM5 22l11-13"/></symbol>
<symbol id="logout" viewBox="0 0 24 24"><path d="M9 3H4v18h5M10 12h11M17 8l4 4-4 4"/></symbol>
<symbol id="menu" viewBox="0 0 24 24"><path d="M4 6h16M4 12h16M4 18h16"/></symbol>
<symbol id="play" viewBox="0 0 24 24"><path d="m9 5 10 7-10 7z"/></symbol>
<symbol id="camera" viewBox="0 0 24 24"><rect x="2" y="7" width="20" height="14" rx="3"/><path d="m7 7 2-4h6l2 4"/><circle cx="12" cy="14" r="4"/></symbol>
<symbol id="edit" viewBox="0 0 24 24"><path d="m16 3 5 5-12 12-6 1 1-6zM13 6l5 5"/></symbol>
<symbol id="archive" viewBox="0 0 24 24"><path d="M4 8v13h16V8M9 12h6"/><rect x="2" y="3" width="20" height="5" rx="1"/></symbol>
<symbol id="download" viewBox="0 0 24 24"><path d="M12 3v12M7 10l5 5 5-5M3 16v5h18v-5"/></symbol>
<symbol id="copy" viewBox="0 0 24 24"><rect x="8" y="8" width="13" height="13" rx="2"/><path d="M16 8V3H3v13h5"/></symbol>
<symbol id="alert" viewBox="0 0 24 24"><path d="m12 3 10 18H2zM12 9v5M12 17v1"/></symbol>
<symbol id="dot" viewBox="0 0 24 24"><circle cx="12" cy="12" r="4" fill="currentColor" stroke="none"/></symbol>
<symbol id="tent" viewBox="0 0 80 80"><path d="M8 32 40 9l32 23H8ZM14 33v37M66 33v37M20 33v30M60 33v30" stroke-width="3"/><path d="m40 11-13 21M40 11l13 21M14 60h52" stroke-width="2"/><path d="M10 32h60v7H10z" fill="currentColor" opacity=".18"/></symbol>
<symbol id="speaker" viewBox="0 0 80 80"><rect x="20" y="8" width="40" height="64" rx="9" stroke-width="3"/><circle cx="40" cy="47" r="15" stroke-width="3"/><circle cx="40" cy="47" r="7" fill="currentColor" opacity=".2"/><circle cx="40" cy="22" r="5" stroke-width="2"/><path d="M28 8V5h24v3M28 66h24" stroke-width="2"/></symbol>
<symbol id="ball" viewBox="0 0 80 80"><circle cx="40" cy="40" r="29" stroke-width="3"/><path d="m40 27 14 10-5 16H31l-5-16zM40 27V11M54 37l15-5M49 53l9 11M31 53l-9 11M26 37l-15-5" stroke-width="3"/></symbol>
<symbol id="party" viewBox="0 0 80 80"><path d="m15 68 14-45 29 29zM20 52l16 9M25 37l25 20M45 18l10-8M60 31l12-2M42 8l-4 8M66 49l7 4" stroke-width="3"/><circle cx="64" cy="14" r="3"/></symbol>
<symbol id="wrench" viewBox="0 0 80 80"><path d="M56 10a20 20 0 0 0-25 25L11 56a9 9 0 0 0 13 13l21-20a20 20 0 0 0 25-25L56 38 42 24z" stroke-width="3"/><circle cx="20" cy="60" r="3"/></symbol>
</svg>
